<?xml version="1.0" encoding="UTF-8" standalone="no"?>
<svg xmlns="http://www.w3.org/2000/svg" xmlns:xlink="http://www.w3.org/1999/xlink"
     width="1136" height="1251"
     viewBox="0 0 1136 1251"
     style="background:#FFFFFF;">
  <rect x="0" y="0" width="1136" height="1251" fill="#FFFFFF"/>
  <g transform="translate(83.5 -5.6)">
    <svg xmlns="http://www.w3.org/2000/svg" contentStyleType="text/css" data-diagram-type="DESCRIPTION" height="465px" preserveAspectRatio="none" style="width:969px;height:465px;background:#FFFFFF;" version="1.1" viewBox="0 0 969 465" width="969px" zoomAndPan="magnify"><defs /><g><g class="cluster" data-qualified-name="PRP" data-source-line="70" id="ent0002"><path d="M12,27.6406 L75.2061,27.6406 A9,9 0 0 1 81.2061,33.6406 L88.2061,48.1172 L496,48.1172 A6,6 0 0 1 502,54.1172 L502,135.0206 A6,6 0 0 1 496,141.0206 L12,141.0206 A6,6 0 0 1 6,135.0206 L6,33.6406 A6,6 0 0 1 12,27.6406" fill="#FAFAF7" style="stroke:#BBBBBB;stroke-width:1.5;" /><line style="stroke:#BBBBBB;stroke-width:1.5;" x1="6" x2="88.2061" y1="48.1172" y2="48.1172" /><text fill="#666666" font-family="'DejaVu Serif'" font-size="9" font-style="italic" lengthAdjust="spacing" textLength="65.2061" x="12" y="39.9946">Preprocessing</text></g><g class="cluster" data-qualified-name="DC" data-source-line="98" id="ent0019"><path d="M435,237.4106 L510.5767,237.4106 A9,9 0 0 1 516.5767,243.4106 L523.5767,257.8872 L917,257.8872 A6,6 0 0 1 923,263.8872 L923,341.8006 A6,6 0 0 1 917,347.8006 L435,347.8006 A6,6 0 0 1 429,341.8006 L429,243.4106 A6,6 0 0 1 435,237.4106" fill="#FAFAF7" style="stroke:#BBBBBB;stroke-width:1.5;" /><line style="stroke:#BBBBBB;stroke-width:1.5;" x1="429" x2="523.5767" y1="257.8872" y2="257.8872" /><text fill="#666666" font-family="'DejaVu Serif'" font-size="9" font-style="italic" lengthAdjust="spacing" textLength="77.5767" x="435" y="249.7646">Dataset Creation</text></g><g class="entity" data-qualified-name="PRP.A_PDF" data-source-line="71" id="ent0003"><rect fill="#F0FAF6" height="64.3887" rx="6" ry="6" style="stroke:#0F6E56;stroke-width:1;" width="84.9414" x="21.53" y="60.6406" /><polygon fill="#F0FAF6" points="89.4714,65.6406,89.4714,79.6406,101.4714,79.6406,101.4714,71.6406,95.4714,65.6406,89.4714,65.6406" style="stroke:#0F6E56;stroke-width:1;" /><line style="stroke:#0F6E56;stroke-width:1;" x1="95.4714" x2="95.4714" y1="65.6406" y2="71.6406" /><line style="stroke:#0F6E56;stroke-width:1;" x1="101.4714" x2="95.4714" y1="71.6406" y2="71.6406" /><text fill="#0F6E56" font-family="'DejaVu Serif'" font-size="10" font-style="italic" lengthAdjust="spacing" textLength="35.7373" x="41.1321" y="84.9229">«prep»</text><text fill="#0F6E56" font-family="'DejaVu Serif'" font-size="10" font-weight="700" lengthAdjust="spacing" textLength="23.291" x="33.53" y="100.6709">PDF</text><text fill="#0F6E56" font-family="'DejaVu Serif'" font-size="8" font-style="italic" lengthAdjust="spacing" textLength="50.9414" x="33.53" y="110.4551">reg + 4 CEB</text></g><g class="entity" data-qualified-name="PRP.P_MD" data-source-line="72" id="ent0004"><rect fill="#E1F5EE" height="61.3887" rx="6" ry="6" style="stroke:#0F6E56;stroke-width:1.4;" width="114.957" x="118.52" y="62.1406" /><text fill="#0F6E56" font-family="'DejaVu Serif'" font-size="10" font-style="italic" lengthAdjust="spacing" textLength="35.7373" x="158.1299" y="83.4229">«prep»</text><text fill="#0F6E56" font-family="'DejaVu Serif'" font-size="10" font-weight="700" lengthAdjust="spacing" textLength="90.957" x="130.52" y="99.1709">PDF→Markdown</text><text fill="#0F6E56" font-family="'DejaVu Serif'" font-size="8" font-style="italic" lengthAdjust="spacing" textLength="64.9063" x="130.52" y="108.9551">Marker + regex</text></g><g class="entity" data-qualified-name="PRP.P_SEG" data-source-line="73" id="ent0005"><rect fill="#E1F5EE" height="61.3887" rx="6" ry="6" style="stroke:#0F6E56;stroke-width:1.4;" width="102.2471" x="245.88" y="62.1406" /><text fill="#0F6E56" font-family="'DejaVu Serif'" font-size="10" font-style="italic" lengthAdjust="spacing" textLength="35.7373" x="279.1349" y="83.4229">«prep»</text><text fill="#0F6E56" font-family="'DejaVu Serif'" font-size="10" font-weight="700" lengthAdjust="spacing" textLength="78.2471" x="257.88" y="99.1709">Segmentation</text><text fill="#0F6E56" font-family="'DejaVu Serif'" font-size="8" font-style="italic" lengthAdjust="spacing" textLength="55.8125" x="257.88" y="108.9551">thematic split</text></g><g class="entity" data-qualified-name="PRP.A_PARTS" data-source-line="74" id="ent0006"><rect fill="#F0FAF6" height="64.3887" rx="6" ry="6" style="stroke:#0F6E56;stroke-width:1;" width="126.7295" x="359.64" y="60.6406" /><polygon fill="#F0FAF6" points="469.3695,65.6406,469.3695,79.6406,481.3695,79.6406,481.3695,71.6406,475.3695,65.6406,469.3695,65.6406" style="stroke:#0F6E56;stroke-width:1;" /><line style="stroke:#0F6E56;stroke-width:1;" x1="475.3695" x2="475.3695" y1="65.6406" y2="71.6406" /><line style="stroke:#0F6E56;stroke-width:1;" x1="481.3695" x2="475.3695" y1="71.6406" y2="71.6406" /><text fill="#0F6E56" font-family="'DejaVu Serif'" font-size="10" font-style="italic" lengthAdjust="spacing" textLength="35.7373" x="400.1361" y="84.9229">«prep»</text><text fill="#0F6E56" font-family="'DejaVu Serif'" font-size="10" font-weight="700" lengthAdjust="spacing" textLength="92.7295" x="371.64" y="100.6709">5 thematic parts</text><text fill="#0F6E56" font-family="'DejaVu Serif'" font-size="8" font-style="italic" lengthAdjust="spacing" textLength="81.2773" x="371.64" y="110.4551">regulation passages</text></g><g class="entity" data-qualified-name="DC.P_CLS" data-source-line="99" id="ent0020"><rect fill="#F1EFE8" height="61.3887" rx="6" ry="6" style="stroke:#444441;stroke-width:1.4;" width="100.3232" x="444.84" y="270.4106" /><text fill="#444441" font-family="'DejaVu Serif'" font-size="10" font-style="italic" lengthAdjust="spacing" textLength="46.8701" x="471.5666" y="291.6929">«shared»</text><text fill="#444441" font-family="'DejaVu Serif'" font-size="10" font-weight="700" lengthAdjust="spacing" textLength="76.3232" x="456.84" y="307.4409">Classification</text><text fill="#444441" font-family="'DejaVu Serif'" font-size="8" font-style="italic" lengthAdjust="spacing" textLength="51.7461" x="456.84" y="317.2251">6-class pillar</text></g><g class="entity" data-qualified-name="DC.P_SPAN" data-source-line="100" id="ent0021"><rect fill="#F1EFE8" height="61.3887" rx="6" ry="6" style="stroke:#444441;stroke-width:1.4;" width="112.584" x="556.71" y="270.4106" /><text fill="#444441" font-family="'DejaVu Serif'" font-size="10" font-style="italic" lengthAdjust="spacing" textLength="46.8701" x="589.5669" y="291.6929">«shared»</text><text fill="#444441" font-family="'DejaVu Serif'" font-size="10" font-weight="700" lengthAdjust="spacing" textLength="88.584" x="568.71" y="307.4409">Span extraction</text><text fill="#444441" font-family="'DejaVu Serif'" font-size="8" font-style="italic" lengthAdjust="spacing" textLength="29.7383" x="568.71" y="317.2251">2-stage</text></g><g class="entity" data-qualified-name="DC.P_QA" data-source-line="101" id="ent0022"><rect fill="#F1EFE8" height="61.3887" rx="6" ry="6" style="stroke:#444441;stroke-width:1.4;" width="114.0732" x="680.96" y="270.4106" /><text fill="#444441" font-family="'DejaVu Serif'" font-size="10" font-style="italic" lengthAdjust="spacing" textLength="46.8701" x="714.5616" y="291.6929">«shared»</text><text fill="#444441" font-family="'DejaVu Serif'" font-size="10" font-weight="700" lengthAdjust="spacing" textLength="90.0732" x="692.96" y="307.4409">Q&amp;A generation</text><text fill="#444441" font-family="'DejaVu Serif'" font-size="8" font-style="italic" lengthAdjust="spacing" textLength="85.457" x="692.96" y="317.2251">factoid + non-factoid</text></g><g class="entity" data-qualified-name="DC.P_J2J" data-source-line="102" id="ent0023"><rect fill="#F1EFE8" height="61.3887" rx="6" ry="6" style="stroke:#444441;stroke-width:1.4;" width="99.0195" x="807.49" y="270.4106" /><text fill="#444441" font-family="'DejaVu Serif'" font-size="10" font-style="italic" lengthAdjust="spacing" textLength="46.8701" x="833.5647" y="291.6929">«shared»</text><text fill="#444441" font-family="'DejaVu Serif'" font-size="10" font-weight="700" lengthAdjust="spacing" textLength="75.0195" x="819.49" y="307.4409">JSON→JSONL</text><text fill="#444441" font-family="'DejaVu Serif'" font-size="8" font-style="italic" lengthAdjust="spacing" textLength="48.1211" x="819.49" y="317.2251">closed-book</text></g><g class="entity" data-qualified-name="P_LGEN" data-source-line="83" id="ent0010"><rect fill="#EEEDFE" height="61.3887" rx="6" ry="6" style="stroke:#3C3489;stroke-width:1.4;" width="135.2158" x="518.39" y="62.1406" /><text fill="#3C3489" font-family="'DejaVu Serif'" font-size="10" font-style="italic" lengthAdjust="spacing" textLength="27.7539" x="572.121" y="83.4229">«leg»</text><text fill="#3C3489" font-family="'DejaVu Serif'" font-size="10" font-weight="700" lengthAdjust="spacing" textLength="111.2158" x="530.39" y="99.1709">Legends generation</text><text fill="#3C3489" font-family="'DejaVu Serif'" font-size="8" font-style="italic" lengthAdjust="spacing" textLength="75.4727" x="530.39" y="108.9551">3 LLMs × 5 pillars</text></g><g class="entity" data-qualified-name="A_LEG" data-source-line="84" id="ent0011"><rect fill="#F6F5FE" height="64.3887" rx="6" ry="6" style="stroke:#3C3489;stroke-width:1;" width="115.8555" x="510.07" y="157.0206" /><polygon fill="#F6F5FE" points="608.9255,162.0206,608.9255,176.0206,620.9255,176.0206,620.9255,168.0206,614.9255,162.0206,608.9255,162.0206" style="stroke:#3C3489;stroke-width:1;" /><line style="stroke:#3C3489;stroke-width:1;" x1="614.9255" x2="614.9255" y1="162.0206" y2="168.0206" /><line style="stroke:#3C3489;stroke-width:1;" x1="620.9255" x2="614.9255" y1="168.0206" y2="168.0206" /><text fill="#3C3489" font-family="'DejaVu Serif'" font-size="10" font-style="italic" lengthAdjust="spacing" textLength="27.7539" x="549.1208" y="181.3029">«leg»</text><text fill="#3C3489" font-family="'DejaVu Serif'" font-size="10" font-weight="700" lengthAdjust="spacing" textLength="46.6406" x="522.07" y="197.0509">Legends</text><text fill="#3C3489" font-family="'DejaVu Serif'" font-size="8" font-style="italic" lengthAdjust="spacing" textLength="81.8555" x="522.07" y="206.8351">narrative exemplars</text></g><g class="entity" data-qualified-name="A_REG" data-source-line="85" id="ent0012"><rect fill="#FDF6F2" height="64.3887" rx="6" ry="6" style="stroke:#993C1D;stroke-width:1;" width="149.249" x="348.38" y="157.0206" /><polygon fill="#FDF6F2" points="480.629,162.0206,480.629,176.0206,492.629,176.0206,492.629,168.0206,486.629,162.0206,480.629,162.0206" style="stroke:#993C1D;stroke-width:1;" /><line style="stroke:#993C1D;stroke-width:1;" x1="486.629" x2="486.629" y1="162.0206" y2="168.0206" /><line style="stroke:#993C1D;stroke-width:1;" x1="492.629" x2="486.629" y1="168.0206" y2="168.0206" /><text fill="#993C1D" font-family="'DejaVu Serif'" font-size="10" font-style="italic" lengthAdjust="spacing" textLength="29.3359" x="403.3365" y="181.3029">«reg»</text><text fill="#993C1D" font-family="'DejaVu Serif'" font-size="10" font-weight="700" lengthAdjust="spacing" textLength="115.249" x="360.38" y="197.0509">Regulation passages</text><text fill="#993C1D" font-family="'DejaVu Serif'" font-size="8" font-style="italic" lengthAdjust="spacing" textLength="49.7695" x="360.38" y="206.8351">cleaned text</text></g><g class="entity" data-qualified-name="A_JLEG" data-source-line="114" id="ent0029"><rect fill="#F6F5FE" height="64.3887" rx="6" ry="6" style="stroke:#3C3489;stroke-width:1;" width="94.9521" x="745.52" y="386.8006" /><polygon fill="#F6F5FE" points="823.4721,391.8006,823.4721,405.8006,835.4721,405.8006,835.4721,397.8006,829.4721,391.8006,823.4721,391.8006" style="stroke:#3C3489;stroke-width:1;" /><line style="stroke:#3C3489;stroke-width:1;" x1="829.4721" x2="829.4721" y1="391.8006" y2="397.8006" /><line style="stroke:#3C3489;stroke-width:1;" x1="835.4721" x2="829.4721" y1="397.8006" y2="397.8006" /><text fill="#3C3489" font-family="'DejaVu Serif'" font-size="10" font-style="italic" lengthAdjust="spacing" textLength="27.7539" x="774.1191" y="411.0829">«leg»</text><text fill="#3C3489" font-family="'DejaVu Serif'" font-size="10" font-weight="700" lengthAdjust="spacing" textLength="60.9521" x="757.52" y="426.8309">JSONL leg.</text><text fill="#3C3489" font-family="'DejaVu Serif'" font-size="8" font-style="italic" lengthAdjust="spacing" textLength="36.9219" x="757.52" y="436.6151">327 lines</text></g><g class="entity" data-qualified-name="A_JREG" data-source-line="115" id="ent0030"><rect fill="#FDF6F2" height="64.3887" rx="6" ry="6" style="stroke:#993C1D;stroke-width:1;" width="96.4219" x="852.79" y="386.8006" /><polygon fill="#FDF6F2" points="932.2119,391.8006,932.2119,405.8006,944.2119,405.8006,944.2119,397.8006,938.2119,391.8006,932.2119,391.8006" style="stroke:#993C1D;stroke-width:1;" /><line style="stroke:#993C1D;stroke-width:1;" x1="938.2119" x2="938.2119" y1="391.8006" y2="397.8006" /><line style="stroke:#993C1D;stroke-width:1;" x1="944.2119" x2="938.2119" y1="397.8006" y2="397.8006" /><text fill="#993C1D" font-family="'DejaVu Serif'" font-size="10" font-style="italic" lengthAdjust="spacing" textLength="29.3359" x="881.333" y="411.0829">«reg»</text><text fill="#993C1D" font-family="'DejaVu Serif'" font-size="10" font-weight="700" lengthAdjust="spacing" textLength="62.4219" x="864.79" y="426.8309">JSONL reg.</text><text fill="#993C1D" font-family="'DejaVu Serif'" font-size="8" font-style="italic" lengthAdjust="spacing" textLength="36.9219" x="864.79" y="436.6151">293 lines</text></g><g class="link" data-entity-1="ent0003" data-entity-2="ent0004" data-link-type="dependency" data-source-line="77" id="lnk7"><path d="M106.66,93.1906 C110.49,93.1906 108.42,93.1906 112.35,93.1906" fill="none" id="A_PDF-to-P_MD" style="stroke:#0F6E56;stroke-width:1.1;" /><polygon fill="#0F6E56" points="118.35,93.1906,109.35,89.1906,113.35,93.1906,109.35,97.1906,118.35,93.1906" style="stroke:#0F6E56;stroke-width:1.1;" /></g><g class="link" data-entity-1="ent0004" data-entity-2="ent0005" data-link-type="dependency" data-source-line="78" id="lnk8"><path d="M233.66,93.1906 C237.68,93.1906 235.72,93.1906 239.7,93.1906" fill="none" id="P_MD-to-P_SEG" style="stroke:#0F6E56;stroke-width:1.1;" /><polygon fill="#0F6E56" points="245.7,93.1906,236.7,89.1906,240.7,93.1906,236.7,97.1906,245.7,93.1906" style="stroke:#0F6E56;stroke-width:1.1;" /></g><g class="link" data-entity-1="ent0005" data-entity-2="ent0006" data-link-type="dependency" data-source-line="79" id="lnk9"><path d="M348.61,83.1906 C352.15,83.1906 349.73,83.1906 353.32,83.1906" fill="none" id="P_SEG-to-A_PARTS" style="stroke:#0F6E56;stroke-width:1.1;" /><polygon fill="#0F6E56" points="359.32,83.1906,350.32,79.1906,354.32,83.1906,350.32,87.1906,359.32,83.1906" style="stroke:#0F6E56;stroke-width:1.1;" /></g><g class="link" data-entity-1="ent0006" data-entity-2="ent0010" data-link-type="dependency" data-source-line="88" id="lnk13"><path d="M486.49,93.1906 C496.86,93.1906 501.63,93.1906 512.11,93.1906" fill="none" id="A_PARTS-to-P_LGEN" style="stroke:#3C3489;stroke-width:1.1;" /><polygon fill="#3C3489" points="518.11,93.1906,509.11,89.1906,513.11,93.1906,509.11,97.1906,518.11,93.1906" style="stroke:#3C3489;stroke-width:1.1;" /></g><g class="link" data-entity-1="ent0010" data-entity-2="ent0011" data-link-type="dependency" data-source-line="90" id="lnk14"><path d="M572.16,123.8606 C572.16,134.3106 572.16,140.0106 572.16,150.5906" fill="none" id="P_LGEN-to-A_LEG" style="stroke:#3C3489;stroke-width:1.1;" /><polygon fill="#3C3489" points="572.16,156.5906,576.16,147.5906,572.16,151.5906,568.16,147.5906,572.16,156.5906" style="stroke:#3C3489;stroke-width:1.1;" /></g><g class="link" data-entity-1="ent0006" data-entity-2="ent0012" data-link-type="dependency" data-source-line="92" id="lnk16"><path d="M423,125.4606 C423,135.5106 423,140.5706 423,150.6206" fill="none" id="A_PARTS-to-A_REG" style="stroke:#993C1D;stroke-width:1.1;" /><polygon fill="#993C1D" points="423,156.6206,427,147.6206,423,151.6206,419,147.6206,423,156.6206" style="stroke:#993C1D;stroke-width:1.1;" /></g><g class="link" data-entity-1="ent0011" data-entity-2="ent0020" data-link-type="dependency" data-source-line="107" id="lnk24"><path d="M527.62,221.8806 C527.62,237.1006 527.62,249.1306 527.62,264.1306" fill="none" id="A_LEG-to-P_CLS" style="stroke:#3C3489;stroke-width:1.1;" /><polygon fill="#3C3489" points="527.62,270.1306,531.62,261.1306,527.62,265.1306,523.62,261.1306,527.62,270.1306" style="stroke:#3C3489;stroke-width:1.1;" /></g><g class="link" data-entity-1="ent0012" data-entity-2="ent0020" data-link-type="dependency" data-source-line="108" id="lnk25"><path d="M471.23,221.8806 C471.23,237.1006 471.23,249.1306 471.23,264.1306" fill="none" id="A_REG-to-P_CLS" style="stroke:#993C1D;stroke-width:1.1;" /><polygon fill="#993C1D" points="471.23,270.1306,475.23,261.1306,471.23,265.1306,467.23,261.1306,471.23,270.1306" style="stroke:#993C1D;stroke-width:1.1;" /></g><g class="link" data-entity-1="ent0020" data-entity-2="ent0021" data-link-type="dependency" data-source-line="109" id="lnk26"><path d="M545.38,301.1906 C549.02,301.1906 546.7,301.1906 550.36,301.1906" fill="none" id="P_CLS-to-P_SPAN" style="stroke:#444441;stroke-width:1.1;" /><polygon fill="#444441" points="556.36,301.1906,547.36,297.1906,551.36,301.1906,547.36,305.1906,556.36,301.1906" style="stroke:#444441;stroke-width:1.1;" /></g><g class="link" data-entity-1="ent0021" data-entity-2="ent0022" data-link-type="dependency" data-source-line="110" id="lnk27"><path d="M669.65,301.1906 C673.27,301.1906 670.91,301.1906 674.53,301.1906" fill="none" id="P_SPAN-to-P_QA" style="stroke:#444441;stroke-width:1.1;" /><polygon fill="#444441" points="680.53,301.1906,671.53,297.1906,675.53,301.1906,671.53,305.1906,680.53,301.1906" style="stroke:#444441;stroke-width:1.1;" /></g><g class="link" data-entity-1="ent0022" data-entity-2="ent0023" data-link-type="dependency" data-source-line="111" id="lnk28"><path d="M795.41,301.1906 C799.33,301.1906 797.27,301.1906 801.14,301.1906" fill="none" id="P_QA-to-P_J2J" style="stroke:#444441;stroke-width:1.1;" /><polygon fill="#444441" points="807.14,301.1906,798.14,297.1906,802.14,301.1906,798.14,305.1906,807.14,301.1906" style="stroke:#444441;stroke-width:1.1;" /></g><g class="link" data-entity-1="ent0023" data-entity-2="ent0029" data-link-type="dependency" data-source-line="117" id="lnk31"><path d="M823.98,332.0806 C823.98,348.8606 823.98,363.5806 823.98,380.5806" fill="none" id="P_J2J-to-A_JLEG" style="stroke:#3C3489;stroke-width:1.1;" /><polygon fill="#3C3489" points="823.98,386.5806,827.98,377.5806,823.98,381.5806,819.98,377.5806,823.98,386.5806" style="stroke:#3C3489;stroke-width:1.1;" /></g><g class="link" data-entity-1="ent0023" data-entity-2="ent0030" data-link-type="dependency" data-source-line="118" id="lnk32"><path d="M879.65,332.0806 C879.65,348.8606 879.65,363.5806 879.65,380.5806" fill="none" id="P_J2J-to-A_JREG" style="stroke:#993C1D;stroke-width:1.1;" /><polygon fill="#993C1D" points="879.65,386.5806,883.65,377.5806,879.65,381.5806,875.65,377.5806,879.65,386.5806" style="stroke:#993C1D;stroke-width:1.1;" /></g></g></svg>
  </g>
  <g transform="translate(20.0 463.7)">
    <svg xmlns="http://www.w3.org/2000/svg" contentStyleType="text/css" data-diagram-type="DESCRIPTION" height="767px" preserveAspectRatio="none" style="width:1096px;height:767px;background:#FFFFFF;" version="1.1" viewBox="0 0 1096 767" width="1096px" zoomAndPan="magnify"><defs /><g><g class="cluster" data-qualified-name="N_FT" data-source-line="80" id="ent0004"><polygon fill="#DDEAFB" points="16,135.0206,26,125.0206,206,125.0206,206,263.4106,196,273.4106,16,273.4106,16,135.0206" style="stroke:#0C447C;stroke-width:1.2;" /><line style="stroke:#0C447C;stroke-width:1.2;" x1="196" x2="206" y1="135.0206" y2="125.0206" /><line style="stroke:#0C447C;stroke-width:1.2;" x1="16" x2="196" y1="135.0206" y2="135.0206" /><line style="stroke:#0C447C;stroke-width:1.2;" x1="196" x2="196" y1="135.0206" y2="273.4106" /><text fill="#0C447C" font-family="'DejaVu Serif'" font-size="10" font-style="italic" lengthAdjust="spacing" textLength="19.9561" x="97.022" y="149.3029">«ft»</text><text fill="#0C447C" font-family="'DejaVu Serif'" font-size="10" font-weight="700" lengthAdjust="spacing" textLength="110.0537" x="51.9731" y="165.0509">FineTuneDB Studio</text></g><g class="cluster" data-qualified-name="MODELS" data-source-line="84" id="ent0006"><path d="M252,150.5206 L283.2183,150.5206 A9,9 0 0 1 289.2183,156.5206 L296.2183,170.9972 L424,170.9972 A6,6 0 0 1 430,176.9972 L430,479.1906 A6,6 0 0 1 424,485.1906 L252,485.1906 A6,6 0 0 1 246,479.1906 L246,156.5206 A6,6 0 0 1 252,150.5206" fill="#FAFAF7" style="stroke:#BBBBBB;stroke-width:1.5;" /><line style="stroke:#BBBBBB;stroke-width:1.5;" x1="246" x2="296.2183" y1="170.9972" y2="170.9972" /><text fill="#666666" font-family="'DejaVu Serif'" font-size="9" font-style="italic" lengthAdjust="spacing" textLength="33.2183" x="252" y="162.8746">Models</text></g><g class="cluster" data-qualified-name="GLUE" data-source-line="102" id="ent0017"><path d="M602,147.0206 L673.3535,147.0206 A9,9 0 0 1 679.3535,153.0206 L686.3535,167.4972 L882,167.4972 A6,6 0 0 1 888,173.4972 L888,376.8006 A6,6 0 0 1 882,382.8006 L602,382.8006 A6,6 0 0 1 596,376.8006 L596,153.0206 A6,6 0 0 1 602,147.0206" fill="#FAFAF7" style="stroke:#BBBBBB;stroke-width:1.5;" /><line style="stroke:#BBBBBB;stroke-width:1.5;" x1="596" x2="686.3535" y1="167.4972" y2="167.4972" /><text fill="#666666" font-family="'DejaVu Serif'" font-size="9" font-style="italic" lengthAdjust="spacing" textLength="73.3535" x="602" y="159.3746">GenderEqGLUE</text></g><g class="entity" data-qualified-name="N_FT.P_FT" data-source-line="81" id="ent0005"><rect fill="#E6F1FB" height="61.3887" rx="6" ry="6" style="stroke:#0C447C;stroke-width:1.4;" width="95.3047" x="59.35" y="188.0206" /><text fill="#0C447C" font-family="'DejaVu Serif'" font-size="10" font-style="italic" lengthAdjust="spacing" textLength="19.9561" x="97.0243" y="209.3029">«ft»</text><text fill="#0C447C" font-family="'DejaVu Serif'" font-size="10" font-weight="700" lengthAdjust="spacing" textLength="65.9033" x="71.35" y="225.0509">Fine-tuning</text><text fill="#0C447C" font-family="'DejaVu Serif'" font-size="8" font-style="italic" lengthAdjust="spacing" textLength="71.3047" x="71.35" y="234.8351">GPT-4o backbone</text></g><g class="entity" data-qualified-name="MODELS.A_MODELS" data-source-line="85" id="ent0007"><rect fill="#F2F8FE" height="54.3887" rx="6" ry="6" style="stroke:#0C447C;stroke-width:1;" width="98.8096" x="284.6" y="191.5206" /><polygon fill="#F2F8FE" points="366.4096,196.5206,366.4096,210.5206,378.4096,210.5206,378.4096,202.5206,372.4096,196.5206,366.4096,196.5206" style="stroke:#0C447C;stroke-width:1;" /><line style="stroke:#0C447C;stroke-width:1;" x1="372.4096" x2="372.4096" y1="196.5206" y2="202.5206" /><line style="stroke:#0C447C;stroke-width:1;" x1="378.4096" x2="372.4096" y1="202.5206" y2="202.5206" /><text fill="#0C447C" font-family="'DejaVu Serif'" font-size="10" font-style="italic" lengthAdjust="spacing" textLength="19.9561" x="319.0268" y="215.8029">«ft»</text><text fill="#0C447C" font-family="'DejaVu Serif'" font-size="10" font-weight="700" lengthAdjust="spacing" textLength="64.8096" x="296.6" y="231.5509">Base model</text></g><g class="entity" data-qualified-name="MODELS.A_MODELS1" data-source-line="86" id="ent0008"><rect fill="#F2F8FE" height="54.3887" rx="6" ry="6" style="stroke:#0C447C;stroke-width:1;" width="128.5264" x="269.74" y="300.9106" /><polygon fill="#F2F8FE" points="381.2664,305.9106,381.2664,319.9106,393.2664,319.9106,393.2664,311.9106,387.2664,305.9106,381.2664,305.9106" style="stroke:#0C447C;stroke-width:1;" /><line style="stroke:#0C447C;stroke-width:1;" x1="387.2664" x2="387.2664" y1="305.9106" y2="311.9106" /><line style="stroke:#0C447C;stroke-width:1;" x1="393.2664" x2="387.2664" y1="311.9106" y2="311.9106" /><text fill="#0C447C" font-family="'DejaVu Serif'" font-size="10" font-style="italic" lengthAdjust="spacing" textLength="19.9561" x="319.0252" y="325.1929">«ft»</text><text fill="#0C447C" font-family="'DejaVu Serif'" font-size="10" font-weight="700" lengthAdjust="spacing" textLength="94.5264" x="281.74" y="340.9409">Tuned-leg model</text></g><g class="entity" data-qualified-name="MODELS.A_MODELS2" data-source-line="87" id="ent0009"><rect fill="#F2F8FE" height="54.3887" rx="6" ry="6" style="stroke:#0C447C;stroke-width:1;" width="127.1738" x="270.41" y="406.8006" /><polygon fill="#F2F8FE" points="380.5838,411.8006,380.5838,425.8006,392.5838,425.8006,392.5838,417.8006,386.5838,411.8006,380.5838,411.8006" style="stroke:#0C447C;stroke-width:1;" /><line style="stroke:#0C447C;stroke-width:1;" x1="386.5838" x2="386.5838" y1="411.8006" y2="417.8006" /><line style="stroke:#0C447C;stroke-width:1;" x1="392.5838" x2="386.5838" y1="417.8006" y2="417.8006" /><text fill="#0C447C" font-family="'DejaVu Serif'" font-size="10" font-style="italic" lengthAdjust="spacing" textLength="19.9561" x="319.0189" y="431.0829">«ft»</text><text fill="#0C447C" font-family="'DejaVu Serif'" font-size="10" font-weight="700" lengthAdjust="spacing" textLength="93.1738" x="282.41" y="446.8309">tuned-reg model</text></g><g class="entity" data-qualified-name="GLUE.T1" data-source-line="103" id="ent0018"><rect fill="#FAEEDA" height="61.3887" rx="6" ry="6" style="stroke:#854F0B;stroke-width:1.4;" width="70.7803" x="785.61" y="188.0206" /><text fill="#854F0B" font-family="'DejaVu Serif'" font-size="10" font-style="italic" lengthAdjust="spacing" textLength="44.7803" x="798.61" y="209.3029">«amber»</text><text fill="#854F0B" font-family="'DejaVu Serif'" font-size="10" font-weight="700" lengthAdjust="spacing" textLength="42.5244" x="799.7379" y="225.0509">GE-CLS</text><text fill="#854F0B" font-family="'DejaVu Serif'" font-size="8" font-style="italic" lengthAdjust="spacing" textLength="37.6211" x="799.7379" y="234.8351">pillar cls.</text></g><g class="entity" data-qualified-name="GLUE.T2" data-source-line="104" id="ent0019"><rect fill="#FAEEDA" height="61.3887" rx="6" ry="6" style="stroke:#854F0B;stroke-width:1.4;" width="70.7803" x="785.61" y="297.4106" /><text fill="#854F0B" font-family="'DejaVu Serif'" font-size="10" font-style="italic" lengthAdjust="spacing" textLength="44.7803" x="798.61" y="318.6929">«amber»</text><text fill="#854F0B" font-family="'DejaVu Serif'" font-size="10" font-weight="700" lengthAdjust="spacing" textLength="41.1621" x="799.1622" y="334.4409">GE-NLI</text><text fill="#854F0B" font-family="'DejaVu Serif'" font-size="8" font-style="italic" lengthAdjust="spacing" textLength="43.6758" x="799.1622" y="344.2251">entailment</text></g><g class="entity" data-qualified-name="GLUE.T3" data-source-line="105" id="ent0020"><rect fill="#FAEEDA" height="61.3887" rx="6" ry="6" style="stroke:#854F0B;stroke-width:1.4;" width="70.7803" x="619.61" y="188.0206" /><text fill="#854F0B" font-family="'DejaVu Serif'" font-size="10" font-style="italic" lengthAdjust="spacing" textLength="44.7803" x="632.61" y="209.3029">«amber»</text><text fill="#854F0B" font-family="'DejaVu Serif'" font-size="10" font-weight="700" lengthAdjust="spacing" textLength="36.7822" x="634.088" y="225.0509">GE-QA</text><text fill="#854F0B" font-family="'DejaVu Serif'" font-size="8" font-style="italic" lengthAdjust="spacing" textLength="41.8242" x="634.088" y="234.8351">open Q&amp;A</text></g><g class="entity" data-qualified-name="GLUE.T4" data-source-line="106" id="ent0021"><rect fill="#FAEEDA" height="61.3887" rx="6" ry="6" style="stroke:#854F0B;stroke-width:1.4;" width="70.7803" x="702.61" y="188.0206" /><text fill="#854F0B" font-family="'DejaVu Serif'" font-size="10" font-style="italic" lengthAdjust="spacing" textLength="44.7803" x="715.61" y="209.3029">«amber»</text><text fill="#854F0B" font-family="'DejaVu Serif'" font-size="10" font-weight="700" lengthAdjust="spacing" textLength="46.7236" x="714.6383" y="225.0509">GE-WSC</text><text fill="#854F0B" font-family="'DejaVu Serif'" font-size="8" font-style="italic" lengthAdjust="spacing" textLength="39.5859" x="714.6383" y="234.8351">Winograd</text></g><g class="entity" data-qualified-name="GLUE.T5" data-source-line="107" id="ent0022"><rect fill="#FAEEDA" height="61.3887" rx="6" ry="6" style="stroke:#854F0B;stroke-width:1.4;" width="80.4648" x="619.77" y="297.4106" /><text fill="#854F0B" font-family="'DejaVu Serif'" font-size="10" font-style="italic" lengthAdjust="spacing" textLength="44.7803" x="637.6123" y="318.6929">«amber»</text><text fill="#854F0B" font-family="'DejaVu Serif'" font-size="10" font-weight="700" lengthAdjust="spacing" textLength="52.2754" x="631.77" y="334.4409">GE-NEXT</text><text fill="#854F0B" font-family="'DejaVu Serif'" font-size="8" font-style="italic" lengthAdjust="spacing" textLength="56.4648" x="631.77" y="344.2251">next sentence</text></g><g class="entity" data-qualified-name="A_JLEG1" data-source-line="73" id="ent0002"><rect fill="#F6F5FE" height="64.3887" rx="6" ry="6" style="stroke:#3C3489;stroke-width:1;" width="94.9521" x="42.52" y="28.6406" /><polygon fill="#F6F5FE" points="120.4721,33.6406,120.4721,47.6406,132.4721,47.6406,132.4721,39.6406,126.4721,33.6406,120.4721,33.6406" style="stroke:#3C3489;stroke-width:1;" /><line style="stroke:#3C3489;stroke-width:1;" x1="126.4721" x2="126.4721" y1="33.6406" y2="39.6406" /><line style="stroke:#3C3489;stroke-width:1;" x1="132.4721" x2="126.4721" y1="39.6406" y2="39.6406" /><text fill="#3C3489" font-family="'DejaVu Serif'" font-size="10" font-style="italic" lengthAdjust="spacing" textLength="27.7539" x="71.1191" y="52.9229">«leg»</text><text fill="#3C3489" font-family="'DejaVu Serif'" font-size="10" font-weight="700" lengthAdjust="spacing" textLength="60.9521" x="54.52" y="68.6709">JSONL leg.</text><text fill="#3C3489" font-family="'DejaVu Serif'" font-size="8" font-style="italic" lengthAdjust="spacing" textLength="36.9219" x="54.52" y="78.4551">327 lines</text></g><g class="entity" data-qualified-name="A_JREG1" data-source-line="74" id="ent0003"><rect fill="#FDF6F2" height="64.3887" rx="6" ry="6" style="stroke:#993C1D;stroke-width:1;" width="96.4219" x="149.79" y="28.6406" /><polygon fill="#FDF6F2" points="229.2119,33.6406,229.2119,47.6406,241.2119,47.6406,241.2119,39.6406,235.2119,33.6406,229.2119,33.6406" style="stroke:#993C1D;stroke-width:1;" /><line style="stroke:#993C1D;stroke-width:1;" x1="235.2119" x2="235.2119" y1="33.6406" y2="39.6406" /><line style="stroke:#993C1D;stroke-width:1;" x1="241.2119" x2="235.2119" y1="39.6406" y2="39.6406" /><text fill="#993C1D" font-family="'DejaVu Serif'" font-size="10" font-style="italic" lengthAdjust="spacing" textLength="29.3359" x="178.333" y="52.9229">«reg»</text><text fill="#993C1D" font-family="'DejaVu Serif'" font-size="10" font-weight="700" lengthAdjust="spacing" textLength="62.4219" x="161.79" y="68.6709">JSONL reg.</text><text fill="#993C1D" font-family="'DejaVu Serif'" font-size="8" font-style="italic" lengthAdjust="spacing" textLength="36.9219" x="161.79" y="78.4551">293 lines</text></g><g class="entity" data-qualified-name="CIP" data-source-line="116" id="ent0024"><rect fill="#FBEAF0" height="61.3887" rx="6" ry="6" style="stroke:#72243E;stroke-width:1.4;" width="117.5391" x="454.23" y="297.4106" /><text fill="#72243E" font-family="'DejaVu Serif'" font-size="10" font-style="italic" lengthAdjust="spacing" textLength="34.3359" x="495.8316" y="318.6929">«pink»</text><text fill="#72243E" font-family="'DejaVu Serif'" font-size="10" font-weight="700" lengthAdjust="spacing" textLength="20.1563" x="466.23" y="334.4409">CIP</text><text fill="#72243E" font-family="'DejaVu Serif'" font-size="8" font-style="italic" lengthAdjust="spacing" textLength="93.5391" x="466.23" y="344.2251">counterfactual probing</text></g><g class="entity" data-qualified-name="SCORE" data-source-line="124" id="ent0028"><rect fill="#FAEEDA" height="54.3887" rx="6" ry="6" style="stroke:#854F0B;stroke-width:1;" width="164.6299" x="911.69" y="300.9106" /><polygon fill="#FAEEDA" points="1059.3199,305.9106,1059.3199,319.9106,1071.3199,319.9106,1071.3199,311.9106,1065.3199,305.9106,1059.3199,305.9106" style="stroke:#854F0B;stroke-width:1;" /><line style="stroke:#854F0B;stroke-width:1;" x1="1065.3199" x2="1065.3199" y1="305.9106" y2="311.9106" /><line style="stroke:#854F0B;stroke-width:1;" x1="1071.3199" x2="1065.3199" y1="311.9106" y2="311.9106" /><text fill="#854F0B" font-family="'DejaVu Serif'" font-size="10" font-style="italic" lengthAdjust="spacing" textLength="44.7803" x="966.6148" y="325.1929">«amber»</text><text fill="#854F0B" font-family="'DejaVu Serif'" font-size="10" font-weight="700" lengthAdjust="spacing" textLength="130.6299" x="923.69" y="340.9409">GenderEqGLUE SCORE</text></g><g class="link" data-entity-1="ent0002" data-entity-2="ent0004" data-link-type="dependency" data-source-line="93" id="lnk13"><path d="M98.41,93.2806 C98.41,100.9381 98.41,109.2613 98.41,117.4386 C98.41,119.4829 98.41,121.5182 98.41,123.5316 C98.41,123.7833 98.41,124.0346 98.41,124.2856 C98.41,124.4111 98.41,118.5365 98.41,118.6618" fill="none" id="A_JLEG1-to-N_FT-1" style="stroke:#3C3489;stroke-width:1.1;" /><polygon fill="#3C3489" points="98.41,124.6618,102.41,115.6618,98.41,119.6618,94.41,115.6618,98.41,124.6618" style="stroke:#3C3489;stroke-width:1.1;" /></g><g class="link" data-entity-1="ent0003" data-entity-2="ent0004" data-link-type="dependency" data-source-line="95" id="lnk15"><path d="M175.83,93.2606 C175.83,99.0519 175.83,105.363 175.83,111.9735 C175.83,115.2787 175.83,118.6588 175.83,122.0862 C175.83,122.943 175.83,117.8028 175.83,118.6652" fill="none" id="A_JREG1-to-N_FT-1" style="stroke:#993C1D;stroke-width:1.1;" /><polygon fill="#993C1D" points="175.83,124.6652,179.83,115.6652,175.83,119.6652,171.83,115.6652,175.83,124.6652" style="stroke:#993C1D;stroke-width:1.1;" /></g><g class="link" data-entity-1="ent0004" data-entity-2="ent0006" data-link-type="dependency" data-source-line="96" id="lnk16"><path d="M206.1164,219.1906 C206.2724,219.1906 206.4302,219.1906 206.5896,219.1906 C207.8653,219.1906 209.2487,219.1906 210.7158,219.1906 C216.5841,219.1906 223.7906,219.1906 230.7913,219.1906 C234.2916,219.1906 237.7404,219.1906 240.9447,219.1906 C242.5469,219.1906 244.0879,219.1906 245.5437,219.1906 C245.6347,219.1906 245.7253,219.1906 245.8156,219.1906 C245.8608,219.1906 239.9059,219.1906 239.9508,219.1906" fill="none" id="N_FT-to-MODELS" style="stroke:#0C447C;stroke-width:1.1;" /><polygon fill="#0C447C" points="245.9508,219.1906,236.9508,215.1906,240.9508,219.1906,236.9508,223.1906,245.9508,219.1906" style="stroke:#0C447C;stroke-width:1.1;" /></g><g class="link" data-entity-1="ent0006" data-entity-2="ent0017" data-link-type="dependency" data-source-line="119" id="lnk25"><path d="M430.0757,219.1906 C430.1041,219.1906 430.1325,219.1906 430.1609,219.1906 C430.2745,219.1906 430.3882,219.1906 430.5018,219.1906 C430.9563,219.1906 431.41,219.1906 431.8575,219.1906 C435.4375,219.1906 438.62,219.1906 438.62,219.1906 C438.62,219.1906 438.62,266.1906 438.62,266.1906 C438.62,266.1906 465.4375,266.1906 505.6638,266.1906 C525.7769,266.1906 549.2422,266.1906 574.3836,266.1906 C580.6689,266.1906 587.0591,266.1906 593.5277,266.1906 C594.3363,266.1906 589.1461,266.1906 589.9571,266.1906" fill="none" id="MODELS-to-GLUE" style="stroke:#854F0B;stroke-width:1.1;" /><polygon fill="#854F0B" points="595.9571,266.1906,586.9571,262.1906,590.9571,266.1906,586.9571,270.1906,595.9571,266.1906" style="stroke:#854F0B;stroke-width:1.1;" /></g><g class="link" data-entity-1="ent0006" data-entity-2="ent0024" data-link-type="dependency" data-source-line="120" id="lnk26"><path d="M430.0821,328.1906 C430.1671,328.1906 430.2526,328.1906 430.3386,328.1906 C430.6829,328.1906 431.0359,328.1906 431.3975,328.1906 C437.1825,328.1906 439.14,328.1906 447.83,328.1906" fill="none" id="MODELS-to-CIP" style="stroke:#72243E;stroke-width:1.1;" /><polygon fill="#72243E" points="453.83,328.1906,444.83,324.1906,448.83,328.1906,444.83,332.1906,453.83,328.1906" style="stroke:#72243E;stroke-width:1.1;" /></g><g class="link" data-entity-1="ent0017" data-entity-2="ent0028" data-link-type="dependency" data-source-line="126" id="lnk29"><path d="M888.0088,328.1906 C888.3432,328.1906 888.6866,328.1906 889.0387,328.1906 C894.6725,328.1906 896.535,328.1906 905.45,328.1906" fill="none" id="GLUE-to-SCORE" style="stroke:#854F0B;stroke-width:1.1;" /><polygon fill="#854F0B" points="911.45,328.1906,902.45,324.1906,906.45,328.1906,902.45,332.1906,911.45,328.1906" style="stroke:#854F0B;stroke-width:1.1;" /></g><g class="legend" data-source-line="129"><rect fill="none" height="241.8672" rx="6" ry="6" style="stroke:#000000;stroke-width:1;" width="334.9834" x="12" y="506.1906" /><text fill="#000000" font-family="'DejaVu Serif'" font-size="14" font-weight="700" lengthAdjust="spacing" textLength="48.0566" x="25.874" y="530.3361">Shape</text><text fill="#000000" font-family="'DejaVu Serif'" font-size="14" font-weight="700" lengthAdjust="spacing" textLength="68.9404" x="110.1553" y="530.3361">Meaning</text><text fill="#000000" font-family="'DejaVu Serif'" font-size="14" lengthAdjust="spacing" textLength="71.3809" x="25.4502" y="550.633">Rectangle</text><text fill="#000000" font-family="'DejaVu Serif'" font-size="14" lengthAdjust="spacing" textLength="4.4502" x="105.2813" y="550.7834"> </text><text fill="#000000" font-family="'DejaVu Serif'" font-size="14" font-weight="700" lengthAdjust="spacing" textLength="60.4365" x="109.7314" y="550.7834">Process</text><text fill="#000000" font-family="'DejaVu Serif'" font-size="14" lengthAdjust="spacing" textLength="150.0146" x="174.6182" y="550.7834">/ transformation step</text><text fill="#000000" font-family="'DejaVu Serif'" font-size="14" lengthAdjust="spacing" textLength="53.9014" x="25.4502" y="571.0803">Artifact</text><text fill="#000000" font-family="'DejaVu Serif'" font-size="14" lengthAdjust="spacing" textLength="4.4502" x="105.2813" y="571.2307"> </text><text fill="#000000" font-family="'DejaVu Serif'" font-size="14" font-weight="700" lengthAdjust="spacing" textLength="67.1904" x="109.7314" y="571.2307">Data file</text><text fill="#000000" font-family="'DejaVu Serif'" font-size="14" lengthAdjust="spacing" textLength="106.5586" x="181.3721" y="571.2307">/ output / input</text><text fill="#000000" font-family="'DejaVu Serif'" font-size="14" lengthAdjust="spacing" textLength="37.9258" x="25.4502" y="591.5275">Node</text><text fill="#000000" font-family="'DejaVu Serif'" font-size="14" lengthAdjust="spacing" textLength="4.4502" x="105.2813" y="591.6779"> </text><text fill="#000000" font-family="'DejaVu Serif'" font-size="14" font-weight="700" lengthAdjust="spacing" textLength="68.9336" x="109.7314" y="591.6779">Platform</text><text fill="#000000" font-family="'DejaVu Serif'" font-size="14" lengthAdjust="spacing" textLength="65.5566" x="183.1152" y="591.6779">/ runtime</text><rect fill="#E1F5EE" height="20.2969" style="stroke:none;stroke-width:1;" width="84.2813" x="19" y="596.9797" /><text fill="#000000" font-family="'DejaVu Serif'" font-size="14" lengthAdjust="spacing" textLength="8.9004" x="21" y="611.9748">  </text><text fill="#000000" font-family="'DejaVu Serif'" font-size="14" lengthAdjust="spacing" textLength="156.3174" x="109.7314" y="611.9748">Shared preprocessing</text><rect fill="#EEEDFE" height="20.2969" style="stroke:none;stroke-width:1;" width="84.2813" x="19" y="617.2766" /><text fill="#000000" font-family="'DejaVu Serif'" font-size="14" lengthAdjust="spacing" textLength="8.9004" x="21" y="632.2717">  </text><text fill="#000000" font-family="'DejaVu Serif'" font-size="14" lengthAdjust="spacing" textLength="114.3174" x="109.7314" y="632.2717">Legends branch</text><rect fill="#FAECE7" height="20.2969" style="stroke:none;stroke-width:1;" width="84.2813" x="19" y="637.5734" /><text fill="#000000" font-family="'DejaVu Serif'" font-size="14" lengthAdjust="spacing" textLength="8.9004" x="21" y="652.5686">  </text><text fill="#000000" font-family="'DejaVu Serif'" font-size="14" lengthAdjust="spacing" textLength="131.5029" x="109.7314" y="652.5686">Regulation branch</text><rect fill="#F1EFE8" height="20.2969" style="stroke:none;stroke-width:1;" width="84.2813" x="19" y="657.8703" /><text fill="#000000" font-family="'DejaVu Serif'" font-size="14" lengthAdjust="spacing" textLength="8.9004" x="21" y="672.8654">  </text><text fill="#000000" font-family="'DejaVu Serif'" font-size="14" lengthAdjust="spacing" textLength="100.9326" x="109.7314" y="672.8654">Shared stages</text><rect fill="#E6F1FB" height="20.2969" style="stroke:none;stroke-width:1;" width="84.2813" x="19" y="678.1672" /><text fill="#000000" font-family="'DejaVu Serif'" font-size="14" lengthAdjust="spacing" textLength="8.9004" x="21" y="693.1623">  </text><text fill="#000000" font-family="'DejaVu Serif'" font-size="14" lengthAdjust="spacing" textLength="146.5693" x="109.7314" y="693.1623">Fine-tuning / models</text><rect fill="#FAEEDA" height="20.2969" style="stroke:none;stroke-width:1;" width="84.2813" x="19" y="698.4641" /><text fill="#000000" font-family="'DejaVu Serif'" font-size="14" lengthAdjust="spacing" textLength="8.9004" x="21" y="713.4592">  </text><text fill="#000000" font-family="'DejaVu Serif'" font-size="14" lengthAdjust="spacing" textLength="114.1055" x="109.7314" y="713.4592">GenderEqGLUE</text><rect fill="#FBEAF0" height="20.2969" style="stroke:none;stroke-width:1;" width="84.2813" x="19" y="718.7609" /><text fill="#000000" font-family="'DejaVu Serif'" font-size="14" lengthAdjust="spacing" textLength="8.9004" x="21" y="733.7561">  </text><text fill="#000000" font-family="'DejaVu Serif'" font-size="14" lengthAdjust="spacing" textLength="138.708" x="109.7314" y="733.7561">Explainability (CIP)</text><line style="stroke:#000000;stroke-width:1;" x1="19" x2="339.9834" y1="515.1906" y2="515.1906" /><line style="stroke:#000000;stroke-width:1;" x1="19" x2="339.9834" y1="535.6379" y2="535.6379" /><line style="stroke:#000000;stroke-width:1;" x1="19" x2="339.9834" y1="556.0852" y2="556.0852" /><line style="stroke:#000000;stroke-width:1;" x1="19" x2="339.9834" y1="576.5324" y2="576.5324" /><line style="stroke:#000000;stroke-width:1;" x1="19" x2="339.9834" y1="596.9797" y2="596.9797" /><line style="stroke:#000000;stroke-width:1;" x1="19" x2="339.9834" y1="617.2766" y2="617.2766" /><line style="stroke:#000000;stroke-width:1;" x1="19" x2="339.9834" y1="637.5734" y2="637.5734" /><line style="stroke:#000000;stroke-width:1;" x1="19" x2="339.9834" y1="657.8703" y2="657.8703" /><line style="stroke:#000000;stroke-width:1;" x1="19" x2="339.9834" y1="678.1672" y2="678.1672" /><line style="stroke:#000000;stroke-width:1;" x1="19" x2="339.9834" y1="698.4641" y2="698.4641" /><line style="stroke:#000000;stroke-width:1;" x1="19" x2="339.9834" y1="718.7609" y2="718.7609" /><line style="stroke:#000000;stroke-width:1;" x1="19" x2="339.9834" y1="739.0578" y2="739.0578" /><line style="stroke:#000000;stroke-width:1;" x1="19" x2="19" y1="515.1906" y2="739.0578" /><line style="stroke:#000000;stroke-width:1;" x1="103.2813" x2="103.2813" y1="515.1906" y2="739.0578" /><line style="stroke:#000000;stroke-width:1;" x1="339.9834" x2="339.9834" y1="515.1906" y2="739.0578" /></g></g></svg>
  </g>
</svg>
